<svg
  width="128"
  height="128"
  viewBox="0 0 128 128"
  xmlns="http://www.w3.org/2000/svg"
  fill="none"
>
  <!-- Background -->
  <rect width="128" height="128" rx="24" fill="#0F172A"/>

  <!-- Grid lines -->
  <g stroke="#1E293B" stroke-width="2">
    <line x1="32" y1="0" x2="32" y2="128"/>
    <line x1="64" y1="0" x2="64" y2="128"/>
    <line x1="96" y1="0" x2="96" y2="128"/>
    <line x1="0" y1="32" x2="128" y2="32"/>
    <line x1="0" y1="64" x2="128" y2="64"/>
    <line x1="0" y1="96" x2="128" y2="96"/>
  </g>

  <!-- Energy waveform -->
  <path
    d="M16 72
       C32 48, 48 96, 64 64
       C80 32, 96 80, 112 56"
    stroke="#22C55E"
    stroke-width="4"
    stroke-linecap="round"
    fill="none"
  />

  <!-- Central leaf + bolt -->
  <path
    d="M64 36
       C48 36, 44 56, 64 76
       C84 56, 80 36, 64 36Z"
    fill="#22C55E"
  />

  <path
    d="M62 44 L58 60 H64 L60 80 L72 56 H66 L70 44 Z"
    fill="#0F172A"
  />
</svg>
